<svg width="32" height="32" xmlns="http://www.w3.org/2000/svg" xmlns:xlink="http://www.w3.org/1999/xlink" xml:space="preserve" overflow="hidden"><g transform="translate(-15 -636)"><path d="M30 644.333 37.6667 644.333 37.6667 645 30 645Z" stroke="#FFFFFF" stroke-width="0.666667" fill="#FFFFFF"/><path d="M30 649.333 37.6667 649.333 37.6667 650 30 650Z" stroke="#FFFFFF" stroke-width="0.666667" fill="#FFFFFF"/><path d="M30 654.333 37.6667 654.333 37.6667 655 30 655Z" stroke="#FFFFFF" stroke-width="0.666667" fill="#FFFFFF"/><path d="M30 659.333 37.6667 659.333 37.6667 660 30 660Z" stroke="#FFFFFF" stroke-width="0.666667" fill="#FFFFFF"/><path d="M21 665.333 41 665.333 41 638.667 21 638.667ZM21.6667 639.333 40.3333 639.333 40.3333 664.667 21.6667 664.667Z" stroke="#FFFFFF" stroke-width="0.666667" fill="#FFFFFF"/><path d="M24.3333 646.167 27.3333 646.167 27.3333 643.167 24.3333 643.167ZM25 643.833 26.6667 643.833 26.6667 645.5 25 645.5Z" stroke="#FFFFFF" stroke-width="0.666667" fill="#FFFFFF"/><path d="M24.3333 651.167 27.3333 651.167 27.3333 648.167 24.3333 648.167ZM25 648.833 26.6667 648.833 26.6667 650.5 25 650.5Z" stroke="#FFFFFF" stroke-width="0.666667" fill="#FFFFFF"/><path d="M24.3333 656.167 27.3333 656.167 27.3333 653.167 24.3333 653.167ZM25 653.833 26.6667 653.833 26.6667 655.5 25 655.5Z" stroke="#FFFFFF" stroke-width="0.666667" fill="#FFFFFF"/><path d="M24.3333 661.167 27.3333 661.167 27.3333 658.167 24.3333 658.167ZM25 658.833 26.6667 658.833 26.6667 660.5 25 660.5Z" stroke="#FFFFFF" stroke-width="0.666667" fill="#FFFFFF"/></g></svg>