<svg width="32" height="33" xmlns="http://www.w3.org/2000/svg" xmlns:xlink="http://www.w3.org/1999/xlink" xml:space="preserve" overflow="hidden"><g transform="translate(-15 -475)"><path d="M7.66667 27.3333 7.66667 4.66667 16 4.66667 16 11.6667 24.3333 11.6667 24.3333 27.3333 7.66667 27.3333ZM18 5.5 22.1667 9.66667 18 9.66667 18 5.5ZM18 2.66667 5.66667 2.66667 5.66667 29.3333 26.3333 29.3333 26.3333 10 18 2.66667Z" stroke="#FFFFFF" stroke-width="0.666667" fill="#FFFFFF" transform="matrix(1 0 0 1.03125 15 475)"/><path d="M9.66667 15 22.3333 15 22.3333 16.3333 9.66667 16.3333Z" stroke="#FFFFFF" stroke-width="0.666667" fill="#FFFFFF" transform="matrix(1 0 0 1.03125 15 475)"/><path d="M9.66667 12.3333 14 12.3333 14 13.6667 9.66667 13.6667Z" stroke="#FFFFFF" stroke-width="0.666667" fill="#FFFFFF" transform="matrix(1 0 0 1.03125 15 475)"/><path d="M9.66667 17.6667 22.3333 17.6667 22.3333 19 9.66667 19Z" stroke="#FFFFFF" stroke-width="0.666667" fill="#FFFFFF" transform="matrix(1 0 0 1.03125 15 475)"/><path d="M9.66667 20.3333 22.3333 20.3333 22.3333 21.6667 9.66667 21.6667Z" stroke="#FFFFFF" stroke-width="0.666667" fill="#FFFFFF" transform="matrix(1 0 0 1.03125 15 475)"/><path d="M9.66667 23 22.3333 23 22.3333 24.3333 9.66667 24.3333Z" stroke="#FFFFFF" stroke-width="0.666667" fill="#FFFFFF" transform="matrix(1 0 0 1.03125 15 475)"/></g></svg>