<svg width="33" height="32" xmlns="http://www.w3.org/2000/svg" xmlns:xlink="http://www.w3.org/1999/xlink" xml:space="preserve" overflow="hidden"><g transform="translate(-11 -71)"><path d="M2.189 17.3193 4.352 19.482 6 17.9213 6 28.6587 14.3333 28.662 14.3333 20.339 17.6667 20.339 17.6667 28.6633 26 28.6667 26 17.9073 27.6563 19.474 29.811 17.3197 16 4.2ZM25.3333 28 18.3333 27.997 18.3333 19.6723 13.6667 19.6723 13.6667 27.995 6.66667 27.9923 6.66667 17.29 16 8.45133 25.3333 17.277ZM4.36467 18.552 3.14433 17.3333 16 5.11867 28.8557 17.3333 27.6433 18.544 16 7.53333Z" stroke="#FFFFFF" stroke-width="0.666667" fill="#FFFFFF" transform="matrix(1.03125 0 0 1 11 71)"/></g></svg>