<svg width="32" height="32" xmlns="http://www.w3.org/2000/svg" xmlns:xlink="http://www.w3.org/1999/xlink" xml:space="preserve" overflow="hidden"><g transform="translate(-12 -156)"><path d="M23.6633 180.353C23.6633 182.194 22.1709 183.687 20.33 183.687 18.4891 183.687 16.9967 182.194 16.9967 180.353 16.9967 178.512 18.4891 177.02 20.33 177.02 22.1709 177.02 23.6633 178.512 23.6633 180.353Z" stroke="#FFFFFF" stroke-width="0.666667" fill="#FFFFFF"/><path d="M39.33 164.02C39.33 165.861 37.8376 167.353 35.9967 167.353 34.1557 167.353 32.6633 165.861 32.6633 164.02 32.6633 162.179 34.1557 160.687 35.9967 160.687 37.8376 160.687 39.33 162.179 39.33 164.02Z" stroke="#FFFFFF" stroke-width="0.666667" fill="#FFFFFF"/><path d="M16.6667 164.017 20.33 160.473 23.9933 164.017 20.33 167.68 16.6667 164.017Z" stroke="#FFFFFF" stroke-width="0.666667" fill="#FFFFFF"/><path d="M32.6633 177 39.33 177 39.33 183.667 32.6633 183.667Z" stroke="#FFFFFF" stroke-width="0.666667" fill="#FFFFFF"/><path d="M25.04 181.023 30 181.023 29.3333 181.69 29.3333 181.69C29.1171 181.931 29.1374 182.302 29.3787 182.518 29.6009 182.717 29.9371 182.718 30.16 182.52L31.91 180.77C32.019 180.66 32.0801 180.511 32.08 180.357 32.0787 180.202 32.0178 180.054 31.91 179.943L30.16 178.193C29.9317 177.965 29.5616 177.965 29.3333 178.193 29.1051 178.422 29.1051 178.792 29.3333 179.02L30 179.687 25.04 179.687Z" stroke="#FFFFFF" stroke-width="0.666667" fill="#FFFFFF"/><path d="M24.8133 164.417 26.5633 166.167C26.7935 166.393 27.1636 166.39 27.39 166.16 27.6164 165.93 27.6135 165.56 27.3833 165.333L26.7167 164.667 31.3333 164.667 31.3333 163.333 26.72 163.333 27.3867 162.667C27.6149 162.439 27.6157 162.07 27.3883 161.842 27.161 161.613 26.7916 161.613 26.5633 161.84L24.8133 163.59C24.5862 163.819 24.5862 164.188 24.8133 164.417Z" stroke="#FFFFFF" stroke-width="0.666667" fill="#FFFFFF"/><path d="M18.1533 173.623C17.9241 173.852 17.924 174.224 18.153 174.453 18.1531 174.453 18.1532 174.453 18.1533 174.453L19.9033 176.203C20.1321 176.43 20.5012 176.43 20.73 176.203L22.4767 174.453C22.6765 174.201 22.6337 173.834 22.381 173.634 22.1724 173.469 21.8786 173.466 21.6667 173.627L21 174.293 21 169 19.6667 169 19.6667 174.287 19 173.62C18.7712 173.393 18.4021 173.393 18.1733 173.62Z" stroke="#FFFFFF" stroke-width="0.666667" fill="#FFFFFF"/></g></svg>