<svg width="63" height="63" xmlns="http://www.w3.org/2000/svg" xmlns:xlink="http://www.w3.org/1999/xlink" xml:space="preserve" overflow="hidden"><g transform="translate(-610 -529)"><path d="M660.984 570.438C658.013 566.522 653.944 561.156 653.944 551.425 653.944 546.859 651.319 542.598 647.448 540.844 646.979 540.617 646.492 540.429 645.992 540.284 646.041 540.016 646.067 539.745 646.068 539.474 646.078 536.951 644.04 534.899 641.518 534.889 638.995 534.88 636.943 536.917 636.933 539.439 636.932 539.716 636.956 539.993 637.005 540.265 636.519 540.408 636.046 540.596 635.594 540.825 631.684 542.597 629.057 546.859 629.057 551.425 629.057 561.158 624.988 566.522 622.017 570.438 620.33 572.661 618.998 574.416 618.998 576.269 618.998 581.399 629.027 585.813 641.081 586.082L641.922 586.082C653.976 585.813 664.004 581.399 664.004 576.269 664.003 574.416 662.671 572.661 660.984 570.438ZM641.5 536.219C643.297 536.221 644.753 537.677 644.755 539.474 644.754 539.636 644.741 539.797 644.716 539.957 644.244 539.858 643.726 539.765 643.141 539.695 641.778 539.53 640.398 539.559 639.044 539.781 638.775 539.826 638.523 539.875 638.283 539.927 638.261 539.777 638.249 539.625 638.247 539.472 638.25 537.677 639.705 536.222 641.5 536.219ZM623.059 571.232C625.969 567.396 630.367 561.6 630.367 551.425 630.323 547.424 632.585 543.755 636.179 541.997 637.153 541.538 638.191 541.229 639.257 541.078 639.955 540.962 640.661 540.904 641.369 540.904 641.91 540.905 642.451 540.936 642.988 541 644.33 541.119 645.641 541.464 646.867 542.02 650.44 543.784 652.682 547.441 652.634 551.425 652.634 561.6 657.031 567.396 659.941 571.232 660.806 572.29 661.574 573.422 662.238 574.617 662.247 574.634 662.243 574.638 662.228 574.623 658.768 571.243 649.9 569.13 641.5 569.13 633.1 569.13 624.233 571.243 620.776 574.622 620.761 574.637 620.757 574.634 620.766 574.615 621.428 573.422 622.196 572.289 623.059 571.232ZM644.166 572.457C644.577 573.934 643.713 575.464 642.236 575.875 641.749 576.01 641.235 576.01 640.749 575.875 639.816 575.622 639.088 574.893 638.834 573.96 638.422 572.484 639.286 570.953 640.763 570.541 641.249 570.406 641.764 570.405 642.251 570.541 643.184 570.795 643.913 571.524 644.166 572.457ZM641.5 584.777C630.606 584.619 622.223 581.05 620.6 577.497 620.928 574.424 628.271 571.099 638.433 570.529 636.948 572.224 637.118 574.8 638.812 576.285 640.506 577.77 643.083 577.6 644.567 575.906 645.916 574.367 645.916 572.068 644.567 570.529 654.729 571.099 662.069 574.424 662.4 577.497 660.777 581.05 652.394 584.619 641.5 584.777Z" stroke="#50589C" stroke-width="0.656316" fill="#50589C"/></g></svg>