<svg width="63" height="63" xmlns="http://www.w3.org/2000/svg" xmlns:xlink="http://www.w3.org/1999/xlink" xml:space="preserve" overflow="hidden"><g transform="translate(-471 -71)"><path d="M519.431 93.3204C519.511 93.2351 526.08 86.2847 532.688 79.2169L532.688 77.2948C525.775 84.6966 518.563 92.3281 518.49 92.4056L516.019 94.875 517.687 96.5445C511.556 102.34 506.7 103.863 506.7 103.863 505.83 109.268 503.696 114.392 500.472 118.816L501.598 119.943 494.839 120.982C494.836 120.983 494.833 120.981 494.832 120.978 494.831 120.977 494.831 120.975 494.832 120.974 495.208 119.957 495.593 118.48 495.182 117.39 494.98 116.835 494.546 116.395 493.994 116.184 492.49 115.594 490.195 117.285 488.405 118.965 488.403 118.968 488.399 118.968 488.397 118.965 488.395 118.964 488.395 118.962 488.395 118.959 488.586 118.218 488.552 117.437 488.299 116.715 488.02 116.064 487.442 115.589 486.75 115.441 485.289 115.073 483.276 116.677 481.096 119.078 481.094 119.08 481.09 119.081 481.088 119.08 481.085 119.078 481.084 119.075 481.085 119.072 482.887 115.271 484.313 110.721 482.036 108.446 480.396 106.805 477.362 106.753 472.763 108.287 472.418 108.401 472.232 108.773 472.347 109.118 472.461 109.462 472.833 109.648 473.177 109.534 477.203 108.192 479.871 108.139 481.108 109.376 483.868 112.136 478.904 120.582 477.273 123.358 476.99 123.84 476.782 124.196 476.682 124.389 476.462 124.699 476.533 125.129 476.843 125.349 476.853 125.356 476.863 125.363 476.873 125.37 476.981 125.448 477.109 125.495 477.242 125.505 477.562 125.505 477.856 125.126 478.562 124.214 483.639 117.66 485.644 116.52 486.43 116.717 486.727 116.761 486.979 116.956 487.096 117.231 487.518 118.216 486.659 120.367 486.02 121.49 485.841 121.805 485.951 122.206 486.267 122.384 486.538 122.538 486.88 122.48 487.085 122.245 489.374 119.601 492.478 117.002 493.517 117.407 493.724 117.482 493.887 117.647 493.958 117.856 494.294 118.744 493.654 120.572 493.17 121.516 493.005 121.839 493.133 122.234 493.455 122.399 493.578 122.462 493.718 122.485 493.855 122.464L502.596 121.119C502.641 121.108 502.685 121.093 502.727 121.072L504.206 122.55C508.629 119.325 513.752 117.19 519.156 116.32 519.156 116.32 520.649 111.433 526.441 105.299L528.159 107.014 528.623 106.555C528.659 106.52 530.62 104.586 532.692 102.565L532.692 100.733C530.914 102.465 529.026 104.32 528.168 105.165L527.352 104.353 527.352 104.353 518.637 95.6297 518.634 95.633 517.877 94.875ZM518.184 115.156C513.229 116.069 508.518 118.005 504.353 120.841L503.726 120.214 512.233 111.707C512.894 111.99 513.66 111.842 514.169 111.334L514.169 111.334C514.857 110.647 514.858 109.532 514.17 108.844 513.483 108.156 512.368 108.156 511.68 108.843 511.171 109.351 511.023 110.118 511.305 110.779L502.799 119.286 502.182 118.669C505.019 114.5 506.955 109.787 507.867 104.828 509.534 104.151 513.687 102.15 518.621 97.4784L525.511 104.369C520.838 109.303 518.856 113.477 518.184 115.156Z" stroke="#50589C" stroke-width="0.656316" fill="#50589C"/></g></svg>