<svg width="63" height="63" xmlns="http://www.w3.org/2000/svg" xmlns:xlink="http://www.w3.org/1999/xlink" xml:space="preserve" overflow="hidden"><g transform="translate(-1055 -71)"><path d="M1108.81 80.1875 1107.5 80.1875 1107.5 123.5 1064.21 123.5 1064.21 124.812 1108.81 124.812 1108.81 80.1875Z" stroke="#50589C" stroke-width="0.656316" fill="#50589C"/><path d="M1066.81 119.576 1074.03 119.576 1074.03 114.326 1066.81 114.326ZM1068.12 115.638 1072.72 115.638 1072.72 118.263 1068.12 118.263Z" stroke="#50589C" stroke-width="0.656316" fill="#50589C"/><path d="M1071.41 112.355 1079.28 112.355 1079.28 107.105 1071.41 107.105ZM1072.72 108.417 1077.97 108.417 1077.97 111.042 1072.72 111.042Z" stroke="#50589C" stroke-width="0.656316" fill="#50589C"/><path d="M1089.12 105.134 1089.12 99.8842 1074.69 99.8842 1074.69 105.134ZM1076 101.197 1087.81 101.197 1087.81 103.822 1076 103.822Z" stroke="#50589C" stroke-width="0.656316" fill="#50589C"/><path d="M1072.72 97.9135 1095.69 97.9135 1095.69 92.6635 1072.72 92.6635ZM1074.03 93.976 1094.38 93.976 1094.38 96.601 1074.03 96.601Z" stroke="#50589C" stroke-width="0.656316" fill="#50589C"/><path d="M1103.56 85.4421 1089.78 85.4421 1089.78 90.6921 1103.56 90.6921ZM1102.25 89.3796 1091.09 89.3796 1091.09 86.7546 1102.25 86.7546Z" stroke="#50589C" stroke-width="0.656316" fill="#50589C"/></g></svg>