<svg width="62" height="63" xmlns="http://www.w3.org/2000/svg" xmlns:xlink="http://www.w3.org/1999/xlink" xml:space="preserve" overflow="hidden"><g transform="translate(-186 -65)"><path d="M41.9146 29.6521C41.8949 29.1486 42.0815 28.6587 42.4312 28.2959 42.8335 28.0102 43.269 27.7744 43.7281 27.5939 47.1825 26.0534 51.1333 26.077 54.569 27.6585 54.9386 27.8019 55.2865 27.9962 55.6024 28.2358 55.9684 28.6176 56.1774 29.1233 56.1875 29.6521L56.1875 36.1389C56.6363 36.4728 57.0674 36.8298 57.4792 37.2084L57.4792 29.6521C57.4877 28.7767 57.1396 27.9355 56.5149 27.322 56.0928 26.97 55.6179 26.6867 55.1077 26.4824 51.348 24.7231 47.0075 24.6936 43.2243 26.4017 42.6525 26.6266 42.1125 26.9254 41.6181 27.2903 40.9622 27.8979 40.5997 28.7584 40.6229 29.6521L40.6229 30.4304C41.059 30.498 41.4896 30.5701 41.9146 30.6467Z" stroke="#50589C" stroke-width="0.645833" fill="#50589C" transform="matrix(1 0 0 1.01613 186 65)"/><path d="M49.0536 24.4842C51.5504 24.4842 53.5745 22.4601 53.5745 19.9634 53.5745 17.4666 51.5504 15.4425 49.0536 15.4425 46.5568 15.4425 44.5328 17.4666 44.5328 19.9634 44.5177 22.4451 46.5174 24.4691 48.9992 24.4842 49.0173 24.4843 49.0355 24.4843 49.0536 24.4842ZM49.0536 16.7342C50.836 16.7367 52.2803 18.181 52.2828 19.9634 52.2828 21.7468 50.837 23.1925 49.0536 23.1925 47.2702 23.1925 45.8245 21.7468 45.8245 19.9634 45.8245 18.1799 47.2702 16.7342 49.0536 16.7342Z" stroke="#50589C" stroke-width="0.645833" fill="#50589C" transform="matrix(1 0 0 1.01613 186 65)"/><path d="M5.8125 29.6521C5.81619 29.3716 5.87477 29.0945 5.98494 28.8365 6.13498 28.4784 6.40022 28.1807 6.73862 27.9904 7.00387 27.8397 7.27899 27.707 7.56206 27.5932 11.0165 26.0532 14.9671 26.0767 18.403 27.6578 18.7727 27.8011 19.1205 27.9955 19.4364 28.2352 19.8023 28.6173 20.011 29.1231 20.0208 29.6521L20.0208 30.6577C20.4466 30.581 20.8772 30.5085 21.3125 30.4401L21.3125 29.6521C21.3007 28.781 20.9559 27.9475 20.3489 27.3226 19.9291 26.9668 19.4531 26.6831 18.9404 26.483 15.1807 24.7237 10.8402 24.6942 7.05702 26.4023 6.50038 26.6219 5.97375 26.911 5.48958 27.2626L5.38754 27.3581C4.80871 27.9794 4.49742 28.8033 4.52083 29.6521L4.52083 37.2084C4.93263 36.83 5.36377 36.4732 5.8125 36.1395Z" stroke="#50589C" stroke-width="0.645833" fill="#50589C" transform="matrix(1 0 0 1.01613 186 65)"/><path d="M31 21.8996C33.4968 21.8996 35.5208 19.8755 35.5208 17.3787 35.5208 14.8819 33.4968 12.8579 31 12.8579 28.5032 12.8579 26.4792 14.8819 26.4792 17.3787 26.4641 19.8605 28.4638 21.8845 30.9456 21.8996 30.9637 21.8997 30.9819 21.8997 31 21.8996ZM31 14.1496C32.7826 14.1517 34.227 15.5962 34.2292 17.3787 34.2292 19.1621 32.7834 20.6079 31 20.6079 29.2166 20.6079 27.7708 19.1621 27.7708 17.3787 27.7708 15.5953 29.2166 14.1496 31 14.1496Z" stroke="#50589C" stroke-width="0.645833" fill="#50589C" transform="matrix(1 0 0 1.01613 186 65)"/><path d="M12.9167 24.4842C15.4135 24.4842 17.4375 22.4601 17.4375 19.9634 17.4375 17.4666 15.4135 15.4425 12.9167 15.4425 10.4199 15.4425 8.39583 17.4666 8.39583 19.9634 8.38078 22.4451 10.3805 24.4691 12.8622 24.4842 12.8804 24.4843 12.8985 24.4843 12.9167 24.4842ZM12.9167 16.7342C14.699 16.7367 16.1433 18.181 16.1458 19.9634 16.1458 21.7468 14.7001 23.1925 12.9167 23.1925 11.1333 23.1925 9.6875 21.7468 9.6875 19.9634 9.6875 18.1799 11.1333 16.7342 12.9167 16.7342Z" stroke="#50589C" stroke-width="0.645833" fill="#50589C" transform="matrix(1 0 0 1.01613 186 65)"/><path d="M23.8313 27.0682C23.8119 26.5646 23.9985 26.0749 24.3479 25.7119 24.75 25.4259 25.1855 25.1902 25.6447 25.0099 29.0993 23.4691 33.0504 23.4926 36.4864 25.0745 36.8562 25.2173 37.204 25.4114 37.5197 25.6512 37.8856 26.0333 38.0942 26.5392 38.1042 27.0682L38.1042 30.0958C38.539 30.1441 38.9696 30.1966 39.3958 30.2534L39.3958 27.0682C39.3852 26.1962 39.0408 25.3614 38.4335 24.7354 38.0141 24.3793 37.5383 24.0956 37.0256 23.8958 33.266 22.1363 28.9255 22.1069 25.1423 23.8151 24.5701 24.0402 24.0297 24.3389 23.5348 24.7038 22.8785 25.3121 22.5158 26.1736 22.5396 27.0682L22.5396 30.2618C22.9663 30.2045 23.3968 30.1514 23.8313 30.1023Z" stroke="#50589C" stroke-width="0.645833" fill="#50589C" transform="matrix(1 0 0 1.01613 186 65)"/><path d="M31 31C15.0654 31 2.58333 36.5316 2.58333 43.5938 2.58333 50.6559 15.0654 56.1875 31 56.1875 46.9346 56.1875 59.4167 50.6559 59.4167 43.5938 59.4167 36.5316 46.9346 31 31 31ZM31 54.8958C16.2963 54.8958 3.875 49.7201 3.875 43.5938 3.875 37.4674 16.2963 32.2917 31 32.2917 45.7037 32.2917 58.125 37.4674 58.125 43.5938 58.125 49.7201 45.7037 54.8958 31 54.8958Z" stroke="#50589C" stroke-width="0.645833" fill="#50589C" transform="matrix(1 0 0 1.01613 186 65)"/></g></svg>