<svg width="63" height="63" xmlns="http://www.w3.org/2000/svg" xmlns:xlink="http://www.w3.org/1999/xlink" xml:space="preserve" overflow="hidden"><g transform="translate(-754 -71)"><path d="M804.562 103.156 804.562 91.3438 809.546 91.3438C810.271 91.3438 810.858 90.7561 810.858 90.0312 810.858 89.4252 810.443 88.8979 809.854 88.7555L778.586 81.2086 778.216 77.8906C778.142 77.2201 777.539 76.7359 776.869 76.8092 776.299 76.8714 775.85 77.3211 775.787 77.8906L775.369 81.607 761.276 88.8651C760.632 89.1977 760.379 89.9894 760.712 90.6335 760.937 91.0687 761.385 91.3426 761.875 91.3438L774.272 91.3438 770.654 123.5 761.906 123.5 761.906 124.812 792.093 124.812 792.093 123.5 783.344 123.5 779.725 91.3438 803.25 91.3438 803.25 103.156 796.687 103.156 796.687 112.344 811.125 112.344 811.125 103.156ZM777.231 80.8805 777.156 80.8621C777.027 80.8337 776.893 80.8454 776.771 80.8956L776.996 78.898C776.999 78.8665 777.005 78.8665 777.008 78.898ZM777.387 82.2685 778.261 90.0352 775.74 90.0352 776.593 82.447 777.082 82.195ZM761.891 90.0247 775.191 83.1702 774.419 90.0358 761.894 90.0358C761.88 90.0372 761.875 90.0312 761.891 90.0247ZM772.565 118.25 773.008 114.312 780.99 114.312 781.433 118.25ZM781.58 119.562 782.023 123.5 771.975 123.5 772.418 119.562ZM773.156 113 773.599 109.062 780.399 109.062 780.842 113ZM773.747 107.75 774.19 103.812 779.808 103.812 780.25 107.75ZM779.659 102.5 774.337 102.5 774.854 97.9062 779.144 97.9062ZM778.997 96.5938 775 96.5938 775.591 91.3438 778.406 91.3438ZM779.58 90.0352 778.741 82.5959 809.492 90.0181C809.522 90.0253 809.521 90.0312 809.492 90.0312ZM809.812 111.031 798 111.031 798 104.469 809.812 104.469Z" stroke="#50589C" stroke-width="0.656316" fill="#50589C"/></g></svg>