<svg width="32" height="32" xmlns="http://www.w3.org/2000/svg" xmlns:xlink="http://www.w3.org/1999/xlink" xml:space="preserve" overflow="hidden"><g transform="translate(-15 -308)"><path d="M30 316.333 37.6667 316.333 37.6667 317 30 317Z" stroke="#FFFFFF" stroke-width="0.666667" fill="#FFFFFF"/><path d="M30 321.333 37.6667 321.333 37.6667 322 30 322Z" stroke="#FFFFFF" stroke-width="0.666667" fill="#FFFFFF"/><path d="M30 326.333 37.6667 326.333 37.6667 327 30 327Z" stroke="#FFFFFF" stroke-width="0.666667" fill="#FFFFFF"/><path d="M30 331.333 37.6667 331.333 37.6667 332 30 332Z" stroke="#FFFFFF" stroke-width="0.666667" fill="#FFFFFF"/><path d="M21 337.333 41 337.333 41 310.667 21 310.667ZM21.6667 311.333 40.3333 311.333 40.3333 336.667 21.6667 336.667Z" stroke="#FFFFFF" stroke-width="0.666667" fill="#FFFFFF"/><path d="M24.3333 318.167 27.3333 318.167 27.3333 315.167 24.3333 315.167ZM25 315.833 26.6667 315.833 26.6667 317.5 25 317.5Z" stroke="#FFFFFF" stroke-width="0.666667" fill="#FFFFFF"/><path d="M24.3333 323.167 27.3333 323.167 27.3333 320.167 24.3333 320.167ZM25 320.833 26.6667 320.833 26.6667 322.5 25 322.5Z" stroke="#FFFFFF" stroke-width="0.666667" fill="#FFFFFF"/><path d="M24.3333 328.167 27.3333 328.167 27.3333 325.167 24.3333 325.167ZM25 325.833 26.6667 325.833 26.6667 327.5 25 327.5Z" stroke="#FFFFFF" stroke-width="0.666667" fill="#FFFFFF"/><path d="M24.3333 333.167 27.3333 333.167 27.3333 330.167 24.3333 330.167ZM25 330.833 26.6667 330.833 26.6667 332.5 25 332.5Z" stroke="#FFFFFF" stroke-width="0.666667" fill="#FFFFFF"/></g></svg>