<svg width="32" height="33" xmlns="http://www.w3.org/2000/svg" xmlns:xlink="http://www.w3.org/1999/xlink" xml:space="preserve" overflow="hidden"><g transform="translate(-15 -559)"><path d="M16.3 29.3333 16.3667 29.3333C19.4764 29.3298 21.9965 26.8098 22 23.7L22 16.6667 21.3333 16.6667 21.3333 23.7C21.3302 26.4417 19.1084 28.6635 16.3667 28.6667L16.3 28.6667C13.5583 28.6635 11.3365 26.4417 11.3333 23.7L11.3333 6.63333C11.3354 4.81163 12.8116 3.33537 14.6333 3.33333L14.7 3.33333C16.5217 3.33537 17.998 4.81163 18 6.63333L18 22.3667C17.9991 23.2684 17.2684 23.9991 16.3667 24L16.3 24C15.3983 23.9991 14.6676 23.2684 14.6667 22.3667L14.6667 14.3333 14 14.3333 14 22.3667C14.0013 23.6364 15.0303 24.6654 16.3 24.6667L16.3667 24.6667C17.6364 24.6654 18.6654 23.6364 18.6667 22.3667L18.6667 6.63333C18.6643 4.4436 16.8897 2.66905 14.7 2.66667L14.6333 2.66667C12.4436 2.66905 10.6691 4.4436 10.6667 6.63333L10.6667 23.7C10.6702 26.8098 13.1902 29.3298 16.3 29.3333Z" stroke="#FFFFFF" stroke-width="0.666667" fill="#FFFFFF" transform="matrix(1 0 0 1.03125 15 559)"/></g></svg>