<svg width="63" height="63" xmlns="http://www.w3.org/2000/svg" xmlns:xlink="http://www.w3.org/1999/xlink" xml:space="preserve" overflow="hidden"><g transform="translate(-464 -244)"><path d="M507.314 283.327 507.314 282.015 502.72 282.015 502.72 289.233 501.408 289.233 501.408 290.546 513.876 290.546 513.876 268.233 508.337 268.233 507.024 269.546 512.564 269.546 512.564 276.108 502.062 276.108 502.062 277.421 512.564 277.421 512.564 282.015 510.595 282.015 510.595 283.327 512.564 283.327 512.564 289.233 504.033 289.233 504.033 283.327 507.314 283.327Z" stroke="#50589C" stroke-width="0.656316" fill="#50589C"/><path d="M516.212 260.358 514.899 261.671 519.781 261.671 519.781 296.452 477.709 296.452C478.43 295.747 478.898 294.825 479.041 293.827L479.094 293.171 479.094 261.671 501.064 261.671 502.376 260.358 479.094 260.358 479.094 258.39C479.094 255.853 477.037 253.796 474.5 253.796 471.963 253.796 469.906 255.853 469.906 258.39L469.906 293.171 469.959 293.827C470.272 295.973 472.044 297.607 474.209 297.747L521.094 297.765 521.094 260.358ZM471.219 258.39C471.219 256.577 472.688 255.108 474.5 255.108 476.312 255.108 477.781 256.577 477.781 258.39L477.781 289.962C476.017 288.15 473.117 288.111 471.305 289.876 471.276 289.904 471.247 289.933 471.219 289.962ZM471.219 293.171C471.219 291.359 472.688 289.89 474.5 289.89 476.312 289.89 477.781 291.359 477.781 293.171 477.781 294.983 476.312 296.452 474.5 296.452 472.689 296.45 471.221 294.982 471.219 293.171Z" stroke="#50589C" stroke-width="0.656316" fill="#50589C"/><path d="M493.203 269.546 494.513 268.233 485 268.233 485 290.546 497.47 290.546 497.47 289.233 496.158 289.233 496.158 282.015 491.564 282.015 491.564 283.327 494.845 283.327 494.845 289.233 486.312 289.233 486.312 283.327 488.283 283.327 488.283 282.015 486.312 282.015 486.312 277.469 490.35 277.469 490.785 276.156 486.312 276.156 486.312 269.546 493.203 269.546Z" stroke="#50589C" stroke-width="0.656316" fill="#50589C"/><path d="M492.547 277.095 498.729 275.056 518.052 255.669C518.561 255.223 518.611 254.448 518.164 253.939 518.139 253.911 518.112 253.883 518.084 253.857L515.787 251.56C515.289 251.051 514.471 251.042 513.962 251.541 513.955 251.547 513.949 251.553 513.943 251.56L494.587 270.946ZM514.865 252.493 517.118 254.747 515.1 256.765 512.845 254.511ZM511.698 255.659 511.917 255.439 514.196 257.716 513.968 257.96 499.777 272.153C499.525 271.017 498.633 270.133 497.495 269.89ZM495.736 271.653 496.004 271.384C496.269 271.223 496.572 271.138 496.881 271.136 497.321 271.136 497.742 271.312 498.05 271.625 498.609 272.168 498.695 273.035 498.254 273.676L498.023 273.907 495.281 274.812 494.836 274.366Z" stroke="#50589C" stroke-width="0.656316" fill="#50589C"/></g></svg>