<svg width="63" height="63" xmlns="http://www.w3.org/2000/svg" xmlns:xlink="http://www.w3.org/1999/xlink" xml:space="preserve" overflow="hidden"><g transform="translate(-189 -244)"><path d="M220.5 257.785C219.05 257.785 217.875 258.96 217.875 260.41 217.875 261.86 219.05 263.035 220.5 263.035 221.95 263.035 223.125 261.86 223.125 260.41 223.121 258.962 221.948 257.79 220.5 257.785ZM220.5 261.723C219.775 261.723 219.188 261.135 219.188 260.41 219.188 259.685 219.775 259.098 220.5 259.098 221.225 259.098 221.812 259.685 221.812 260.41 221.813 261.135 221.226 261.723 220.501 261.724 220.501 261.724 220.5 261.724 220.5 261.724Z" stroke="#50589C" stroke-width="0.656316" fill="#50589C"/><path d="M240.844 293.233 240.844 291.25 238.219 291.25 238.219 270.906 240.844 270.906 240.844 267.625 244.125 267.625 244.125 266.312 220.5 251.875 196.875 266.312 196.875 267.625 200.156 267.625 200.156 270.906 202.781 270.906 202.781 291.25 200.156 291.25 200.156 293.233 195.562 296.514 195.562 299.125 245.438 299.125 245.438 296.514ZM236.906 291.25 235.594 291.25 235.594 270.906 236.906 270.906ZM206.719 270.906 210.656 270.906 210.656 291.25 206.719 291.25ZM211.969 270.906 213.281 270.906 213.281 291.25 211.969 291.25ZM214.594 270.906 218.531 270.906 218.531 291.25 214.594 291.25ZM219.844 270.906 221.156 270.906 221.156 291.25 219.844 291.25ZM222.469 270.906 226.406 270.906 226.406 291.25 222.469 291.25ZM227.719 270.906 229.031 270.906 229.031 291.25 227.719 291.25ZM230.344 270.906 234.281 270.906 234.281 291.25 230.344 291.25ZM199.412 266.3 220.5 253.415 241.588 266.3C241.591 266.301 241.593 266.305 241.592 266.308 241.591 266.31 241.59 266.312 241.588 266.312L199.416 266.312C199.412 266.312 199.409 266.308 199.41 266.304 199.41 266.303 199.411 266.301 199.412 266.3ZM201.469 267.625 239.531 267.625 239.531 269.594 201.469 269.594ZM204.094 270.906 205.406 270.906 205.406 291.25 204.094 291.25ZM201.469 293.908 201.469 292.562 239.531 292.562 239.531 293.908 240.081 294.302 240.403 294.533 200.597 294.533 200.92 294.302ZM244.125 297.812 196.875 297.812 196.875 297.19 198.759 295.844 242.244 295.844 244.125 297.19Z" stroke="#50589C" stroke-width="0.656316" fill="#50589C"/></g></svg>