<svg width="63" height="63" xmlns="http://www.w3.org/2000/svg" xmlns:xlink="http://www.w3.org/1999/xlink" xml:space="preserve" overflow="hidden"><g transform="translate(-753 -243)"><path d="M812.456 295.5 786.797 250.875C786.099 249.625 784.52 249.177 783.269 249.875 782.849 250.109 782.503 250.455 782.269 250.875L756.544 295.5C755.824 296.765 756.266 298.374 757.531 299.093 757.93 299.32 758.382 299.439 758.841 299.438L810.159 299.438C811.615 299.441 812.797 298.264 812.801 296.809 812.802 296.35 812.683 295.899 812.456 295.5ZM811.301 297.481C811.065 297.887 810.628 298.133 810.159 298.125L758.841 298.125C758.371 298.133 757.935 297.887 757.699 297.481 757.455 297.075 757.448 296.569 757.681 296.156L783.416 251.512C783.763 250.896 784.544 250.677 785.161 251.024 785.371 251.143 785.544 251.319 785.659 251.531L811.309 296.137C811.55 296.554 811.547 297.068 811.301 297.481Z" stroke="#50589C" stroke-width="0.656316" fill="#50589C"/><path d="M784.5 291.549C784.103 291.561 783.72 291.404 783.446 291.116 783.163 290.834 783.009 290.447 783.019 290.047 783.003 289.649 783.157 289.262 783.441 288.982 783.723 288.705 784.105 288.555 784.5 288.567 784.903 288.557 785.293 288.708 785.584 288.986 785.878 289.259 786.039 289.646 786.024 290.047 786.033 290.449 785.872 290.836 785.58 291.112 785.295 291.4 784.905 291.558 784.5 291.549Z" stroke="#50589C" stroke-width="0.656316" fill="#50589C"/><path d="M783.779 284.081 783.567 263.204 785.346 263.204 785.134 284.081 783.779 284.081Z" stroke="#50589C" stroke-width="0.656316" fill="#50589C"/></g></svg>