<svg width="63" height="63" xmlns="http://www.w3.org/2000/svg" xmlns:xlink="http://www.w3.org/1999/xlink" xml:space="preserve" overflow="hidden"><g transform="translate(-464 -410)"><path d="M468.537 466.086C468.936 466.316 469.389 466.437 469.85 466.438L521.153 466.438C522.603 466.436 523.777 465.26 523.775 463.81 523.775 463.35 523.653 462.898 523.423 462.5L497.777 417.875C497.056 416.617 495.452 416.182 494.194 416.904 493.79 417.135 493.455 417.471 493.223 417.875L467.577 462.5C466.852 463.755 467.282 465.361 468.537 466.086ZM468.715 463.156 494.361 418.531C494.477 418.329 494.645 418.162 494.847 418.046 495.045 417.929 495.27 417.868 495.5 417.868 495.971 417.87 496.405 418.123 496.639 418.531L522.287 463.156C522.649 463.784 522.434 464.587 521.806 464.949 521.608 465.064 521.382 465.125 521.153 465.125L469.849 465.125C469.124 465.124 468.537 464.535 468.539 463.81 468.539 463.58 468.6 463.355 468.715 463.156Z" stroke="#50589C" stroke-width="0.656316" fill="#50589C"/><path d="M493.827 444.466 489.955 437.707C486.491 439.691 484.351 443.375 484.344 447.367L492.133 447.367C492.14 446.167 492.785 445.062 493.827 444.466ZM491.015 446.054 485.747 446.054C486.103 443.484 487.455 441.157 489.512 439.575L492.129 444.143C491.611 444.683 491.229 445.338 491.015 446.054Z" stroke="#50589C" stroke-width="0.656316" fill="#50589C"/><path d="M495.5 450.736C494.912 450.737 494.335 450.578 493.83 450.277L489.958 457.069C491.644 458.041 493.554 458.556 495.5 458.562L495.573 458.562C497.501 458.562 499.394 458.043 501.052 457.06L497.167 450.274C496.663 450.576 496.087 450.736 495.5 450.736ZM495.573 457.25 495.507 457.25C494.231 457.245 492.968 456.993 491.788 456.507L494.405 451.913C495.125 452.091 495.877 452.091 496.597 451.913L499.23 456.512C498.072 456.999 496.829 457.25 495.573 457.25Z" stroke="#50589C" stroke-width="0.656316" fill="#50589C"/><path d="M498.873 447.406 506.656 447.367C506.636 443.39 504.501 439.725 501.052 437.746L497.18 444.506C498.222 445.101 498.867 446.206 498.873 447.406ZM501.494 439.615C503.539 441.192 504.886 443.505 505.249 446.062L499.989 446.088C499.775 445.374 499.394 444.722 498.878 444.185Z" stroke="#50589C" stroke-width="0.656316" fill="#50589C"/><path d="M493.118 447.367C493.118 448.683 494.184 449.749 495.5 449.749 496.816 449.749 497.882 448.683 497.882 447.367 497.882 446.051 496.816 444.985 495.5 444.985 494.185 444.986 493.119 446.052 493.118 447.367ZM495.5 446.297C496.091 446.298 496.569 446.777 496.568 447.368 496.568 447.959 496.088 448.437 495.497 448.437 494.908 448.436 494.43 447.958 494.429 447.369 494.428 446.778 494.907 446.298 495.498 446.297 495.499 446.297 495.499 446.297 495.5 446.297Z" stroke="#50589C" stroke-width="0.656316" fill="#50589C"/></g></svg>