<svg width="63" height="63" xmlns="http://www.w3.org/2000/svg" xmlns:xlink="http://www.w3.org/1999/xlink" xml:space="preserve" overflow="hidden"><g transform="translate(-1055 -245)"><path d="M1104.63 283.211C1102.98 281.91 1101.16 280.849 1099.22 280.061L1099.22 280.061C1098.59 279.795 1097.96 279.542 1097.32 279.301L1093.22 277.66C1092.73 277.459 1092.41 276.98 1092.41 276.448L1092.41 274.514C1094.88 272.66 1096.34 269.749 1096.34 266.656L1096.34 262.062 1098.97 262.062C1099.33 262.062 1099.62 261.769 1099.62 261.406 1099.62 261.044 1099.33 260.75 1098.97 260.75L1097.32 260.75 1097.32 259.646 1097.32 259.604C1097.09 255.868 1094.94 252.517 1091.64 250.758L1091.27 250.557C1090.9 249.215 1089.68 248.284 1088.29 248.281L1084.72 248.281C1083.32 248.284 1082.1 249.226 1081.74 250.578L1081.4 250.76C1078.1 252.519 1075.95 255.87 1075.72 259.606L1075.72 259.647 1075.72 260.75 1074.03 260.75C1073.67 260.75 1073.38 261.044 1073.38 261.406 1073.38 261.769 1073.67 262.062 1074.03 262.062L1076.66 262.062 1076.66 266.656C1076.66 269.747 1078.12 272.656 1080.59 274.509L1080.59 276.448C1080.59 276.98 1080.27 277.46 1079.78 277.662L1076.24 279.099C1073.41 280.011 1070.75 281.398 1068.38 283.202 1067 284.275 1066.19 285.912 1066.16 287.656L1066.16 298.834 1066.45 299.031C1069.52 301.075 1078.15 302.094 1086.71 302.094 1095.31 302.094 1103.83 301.063 1106.58 299.005L1106.84 298.812 1106.84 287.642C1106.81 285.908 1106 284.28 1104.63 283.211ZM1077.03 259.687C1077.24 256.408 1079.13 253.468 1082.02 251.914L1082.94 255.673C1083 255.939 1083.24 256.126 1083.52 256.125L1083.68 256.125C1083.69 256.123 1083.7 256.12 1083.71 256.117 1084.03 256.031 1084.21 255.705 1084.13 255.388L1083 250.941C1083.2 250.151 1083.91 249.597 1084.72 249.594L1088.29 249.594C1089.1 249.597 1089.81 250.152 1090.01 250.942L1088.88 255.388C1088.88 255.399 1088.87 255.411 1088.87 255.422 1088.8 255.741 1089.01 256.055 1089.32 256.124 1089.33 256.124 1089.33 256.124 1089.33 256.125L1089.49 256.125C1089.76 256.126 1090 255.939 1090.07 255.673L1091.02 251.914C1093.91 253.468 1095.8 256.408 1096 259.687L1096 260.75 1077.03 260.75ZM1100.28 296.24 1100.28 299.805C1096.38 300.445 1092.43 300.777 1088.47 300.8L1088.47 296.188 1100.28 296.188ZM1096.85 280.529 1097.93 280.964 1100.07 294.875 1088.47 294.875 1088.47 291.079 1093.77 279.297 1094.44 279.564ZM1077.97 266.656 1077.97 262.062 1095.03 262.062 1095.03 266.656C1095.03 271.368 1091.21 275.188 1086.5 275.188 1081.79 275.188 1077.97 271.368 1077.97 266.656ZM1081.91 276.448 1081.91 275.354C1084.78 276.88 1088.22 276.88 1091.1 275.354L1091.1 276.448C1091.1 277.446 1091.66 278.357 1092.56 278.797L1092.22 279.559C1090.37 280.167 1088.44 280.464 1086.5 280.438 1084.56 280.463 1082.63 280.166 1080.79 279.557L1080.44 278.792C1081.34 278.355 1081.91 277.445 1081.91 276.448ZM1072.72 296.239 1072.73 296.188 1084.53 296.188 1084.53 300.787C1080.58 300.742 1076.63 300.391 1072.72 299.737ZM1078.56 279.57 1079.23 279.298 1084.54 291.076 1084.54 294.875 1072.94 294.875 1075.11 280.975 1076.71 280.325ZM1067.47 287.67C1067.5 286.32 1068.13 285.055 1069.2 284.227 1070.48 283.209 1071.88 282.355 1073.37 281.684L1073.69 281.553 1071.42 296.086 1071.41 299.469C1070.04 299.206 1068.72 298.751 1067.47 298.118ZM1085.84 300.807 1085.84 290.796 1081.5 281.15C1084.78 281.948 1088.21 281.948 1091.5 281.15L1087.16 290.796 1087.16 300.81C1086.72 300.812 1086.28 300.81 1085.85 300.807ZM1105.53 298.139C1104.3 298.813 1102.98 299.286 1101.6 299.538L1101.6 296.188 1099.36 281.553C1100.95 282.25 1102.45 283.151 1103.81 284.235 1104.87 285.059 1105.5 286.316 1105.53 287.656Z" stroke="#50589C" stroke-width="0.656316" fill="#50589C"/></g></svg>