<svg width="63" height="63" xmlns="http://www.w3.org/2000/svg" xmlns:xlink="http://www.w3.org/1999/xlink" xml:space="preserve" overflow="hidden"><g transform="translate(-1055 -410)"><path d="M1103.23 438.026 1104.16 437.099 1100.35 433.297 1104.16 429.495 1103.23 428.567 1099.43 432.369 1095.62 428.567 1094.7 429.495 1098.5 433.297 1094.7 437.099 1095.62 438.026 1099.43 434.225 1103.23 438.026Z" stroke="#50589C" stroke-width="0.656316" fill="#50589C"/><path d="M1092.82 433.34C1093.25 433.382 1093.67 433.466 1094.08 433.59L1094.5 432.292 1092.96 432.034Z" stroke="#50589C" stroke-width="0.656316" fill="#50589C"/><path d="M1083.18 453.519 1083.22 454.831C1083.92 454.811 1084.59 454.769 1085.23 454.706L1085.1 453.4C1084.49 453.459 1083.85 453.499 1083.18 453.519Z" stroke="#50589C" stroke-width="0.656316" fill="#50589C"/><path d="M1079.22 454.74C1079.89 454.786 1080.56 454.818 1081.21 454.834L1081.24 453.521C1080.56 453.505 1079.91 453.472 1079.31 453.431Z" stroke="#50589C" stroke-width="0.656316" fill="#50589C"/><path d="M1085.77 438.189C1086.11 438.835 1086.55 439.42 1087.08 439.922L1088.02 439.003C1087.59 438.601 1087.23 438.134 1086.95 437.62Z" stroke="#50589C" stroke-width="0.656316" fill="#50589C"/><path d="M1087.09 435.942C1087.32 435.558 1087.6 435.203 1087.92 434.881L1086.99 433.953C1086.6 434.345 1086.26 434.778 1085.97 435.245 1085.87 435.405 1085.78 435.572 1085.71 435.746L1086.91 436.271C1086.96 436.157 1087.02 436.047 1087.09 435.942Z" stroke="#50589C" stroke-width="0.656316" fill="#50589C"/><path d="M1091.01 433.362 1090.83 432.063C1090.11 432.162 1089.41 432.373 1088.76 432.689L1089.33 433.87C1089.86 433.614 1090.43 433.443 1091.01 433.362Z" stroke="#50589C" stroke-width="0.656316" fill="#50589C"/><path d="M1093.15 445.228C1092.89 444.572 1092.56 443.948 1092.15 443.367L1091.07 444.106C1091.42 444.606 1091.7 445.143 1091.93 445.707Z" stroke="#50589C" stroke-width="0.656316" fill="#50589C"/><path d="M1075.23 454.297C1075.27 454.302 1076.02 454.428 1077.23 454.559L1077.37 453.254C1076.21 453.127 1075.46 453.001 1075.45 453Z" stroke="#50589C" stroke-width="0.656316" fill="#50589C"/><path d="M1086.99 453.129 1087.24 454.418C1087.91 454.29 1088.58 454.114 1089.23 453.893L1088.8 452.652C1088.21 452.854 1087.6 453.013 1086.99 453.129Z" stroke="#50589C" stroke-width="0.656316" fill="#50589C"/><path d="M1090.44 451.884 1091.14 452.994C1091.77 452.605 1092.33 452.102 1092.77 451.508L1091.71 450.735C1091.36 451.195 1090.93 451.584 1090.44 451.884Z" stroke="#50589C" stroke-width="0.656316" fill="#50589C"/><path d="M1089.42 440.345 1088.53 441.303C1089.04 441.789 1089.47 442.205 1089.9 442.656L1090.86 441.763C1090.38 441.255 1089.89 440.781 1089.42 440.345Z" stroke="#50589C" stroke-width="0.656316" fill="#50589C"/><path d="M1092.36 447.444C1092.4 447.727 1092.41 448.012 1092.41 448.297 1092.41 448.424 1092.41 448.554 1092.4 448.685 1092.4 448.863 1092.38 449.039 1092.35 449.214L1093.64 449.439C1093.68 449.211 1093.7 448.981 1093.71 448.75 1093.72 448.596 1093.73 448.446 1093.73 448.297 1093.73 447.961 1093.71 447.626 1093.67 447.292Z" stroke="#50589C" stroke-width="0.656316" fill="#50589C"/><path d="M1077.79 437.562 1079.11 437.562 1079.11 435.594 1081.86 435.594 1078.45 427.062 1075.04 435.594 1077.79 435.594ZM1078.45 430.597 1079.92 434.281 1076.98 434.281Z" stroke="#50589C" stroke-width="0.656316" fill="#50589C"/><path d="M1102.47 449.401 1103.62 449.401 1100.84 442.812 1098.06 449.401 1099.22 449.401 1097.34 453.312 1100.19 453.312 1100.19 455.281 1101.5 455.281 1101.5 453.312 1104.34 453.312ZM1100.84 446.189 1101.64 448.088 1100.04 448.088ZM1099.43 452 1100.4 449.966 1100.84 449.041 1101.29 449.966 1102.26 452Z" stroke="#50589C" stroke-width="0.656316" fill="#50589C"/><path d="M1081.91 446.422 1079.94 441.5 1077.05 448.719 1079.28 448.719 1079.28 450.031 1080.59 450.031 1080.59 448.719 1083.22 448.719 1083.22 450.031 1084.53 450.031 1084.53 448.719 1086.76 448.719 1083.88 441.5ZM1080.59 447.406 1078.99 447.406 1079.94 445.034 1080.89 447.406ZM1084.53 447.406 1082.93 447.406 1083.88 445.034 1084.82 447.406Z" stroke="#50589C" stroke-width="0.656316" fill="#50589C"/><path d="M1106.48 421.812 1071.41 421.812 1071.41 415.25 1066.16 415.25C1063.98 415.253 1062.22 417.014 1062.22 419.188L1062.22 457.25C1062.22 459.424 1063.98 461.185 1066.16 461.188L1101.59 461.188 1101.59 467.75 1106.84 467.75C1109.02 467.747 1110.78 465.986 1110.78 463.812L1110.78 425.75C1110.67 423.478 1108.75 421.718 1106.48 421.812ZM1063.53 419.188C1063.53 417.738 1064.71 416.562 1066.16 416.562L1070.09 416.562 1070.09 453.312 1066.16 453.312C1065.19 453.312 1064.25 453.67 1063.53 454.317ZM1063.53 457.25C1063.53 455.8 1064.71 454.625 1066.16 454.625L1071.41 454.625 1071.41 423.125 1106.48 423.125C1108.03 423.033 1109.36 424.204 1109.47 425.75L1109.47 459.875 1066.16 459.875C1064.71 459.875 1063.53 458.7 1063.53 457.25ZM1109.47 463.812C1109.47 465.262 1108.29 466.438 1106.84 466.438L1102.91 466.438 1102.91 461.188 1109.47 461.188Z" stroke="#50589C" stroke-width="0.656316" fill="#50589C"/></g></svg>