<svg width="33" height="33" xmlns="http://www.w3.org/2000/svg" xmlns:xlink="http://www.w3.org/1999/xlink" xml:space="preserve" overflow="hidden"><g transform="translate(-11 -229)"><path d="M16.1562 238.608C16.8388 238.607 17.4562 238.202 17.7292 237.577L19.25 237.577C19.6297 237.577 19.9375 237.884 19.9375 238.264L19.9375 242.78C20.2882 242.65 20.6539 242.567 21.0258 242.53 21.0926 242.224 21.1886 241.925 21.3125 241.637L21.3125 238.264C21.3112 237.126 20.3885 236.203 19.25 236.202L17.7292 236.202C17.3495 235.332 16.3365 234.934 15.4665 235.314 14.5965 235.693 14.199 236.707 14.5787 237.577 14.8524 238.204 15.472 238.609 16.1562 238.608Z" stroke="#FFFFFF" stroke-width="0.6875" fill="#FFFFFF"/><path d="M17.4934 248.672C17.478 248.641 17.4656 248.608 17.4512 248.577L14.7812 248.577C14.4016 248.577 14.0938 248.269 14.0938 247.889L14.0938 246.025C14.9637 245.645 15.3612 244.632 14.9815 243.762 14.6018 242.892 13.5887 242.494 12.7188 242.874 11.8488 243.254 11.4513 244.267 11.831 245.137 12.0044 245.534 12.3215 245.851 12.7188 246.025L12.7188 247.889C12.7201 249.028 13.6427 249.95 14.7812 249.952L18.4339 249.952C18.0436 249.587 17.7247 249.154 17.4934 248.672Z" stroke="#FFFFFF" stroke-width="0.6875" fill="#FFFFFF"/><path d="M26.125 234.337 26.125 238.619C26.5923 238.636 27.055 238.718 27.5 238.861L27.5 234.337C28.37 233.957 28.7674 232.944 28.3878 232.074 28.0081 231.204 26.995 230.807 26.125 231.187 25.255 231.566 24.8576 232.579 25.2372 233.449 25.4106 233.847 25.7277 234.164 26.125 234.337Z" stroke="#FFFFFF" stroke-width="0.6875" fill="#FFFFFF"/><path d="M33.0894 241.341C33.1774 241.402 33.2613 241.469 33.3438 241.537L33.3438 240.327C33.3438 239.947 33.6515 239.639 34.0312 239.639L36.0938 239.639C37.2323 239.638 38.1549 238.715 38.1562 237.577L38.1562 237.087C39.0262 236.707 39.4237 235.694 39.044 234.824 38.6643 233.954 37.6512 233.557 36.7812 233.937 35.9113 234.316 35.5138 235.329 35.8935 236.199 36.0669 236.597 36.384 236.914 36.7812 237.087L36.7812 237.577C36.7812 237.956 36.4735 238.264 36.0938 238.264L34.0312 238.264C32.8926 238.265 31.9699 239.188 31.9688 240.327L31.9688 240.779C32.3674 240.911 32.7448 241.1 33.0894 241.341Z" stroke="#FFFFFF" stroke-width="0.6875" fill="#FFFFFF"/><path d="M22.6875 251.14 22.6875 252.014C22.6875 252.394 22.3797 252.702 22 252.702L19.9375 252.702C18.7989 252.703 17.8761 253.625 17.875 254.764L17.875 255.254C17.005 255.633 16.6076 256.646 16.9872 257.516 17.3669 258.386 18.38 258.784 19.25 258.404 20.12 258.024 20.5174 257.011 20.1378 256.141 19.9644 255.744 19.6473 255.427 19.25 255.254L19.25 254.764C19.25 254.384 19.5578 254.077 19.9375 254.077L22 254.077C23.1385 254.075 24.0612 253.153 24.0625 252.014L24.0625 251.14Z" stroke="#FFFFFF" stroke-width="0.6875" fill="#FFFFFF"/><path d="M41.5938 243.764C40.9112 243.765 40.2938 244.17 40.0208 244.795L36.6132 244.795C37.0316 245.174 37.3569 245.645 37.5636 246.17L40.0208 246.17C40.4005 247.04 41.4135 247.438 42.2835 247.058 43.1535 246.678 43.551 245.665 43.1713 244.795 42.8976 244.168 42.278 243.763 41.5938 243.764Z" stroke="#FFFFFF" stroke-width="0.6875" fill="#FFFFFF"/><path d="M38.5 253.045C37.8174 253.046 37.2 253.451 36.927 254.077L35.4062 254.077C35.0265 254.077 34.7188 253.769 34.7188 253.389L34.7188 251.088C34.5224 251.122 34.3236 251.139 34.1244 251.14L33.3438 251.14 33.3438 253.389C33.3451 254.528 34.2677 255.45 35.4062 255.452L36.927 255.452C37.3067 256.322 38.3198 256.719 39.1898 256.339 40.0598 255.96 40.4572 254.947 40.0775 254.077 39.8038 253.449 39.1842 253.044 38.5 253.045Z" stroke="#FFFFFF" stroke-width="0.6875" fill="#FFFFFF"/><path d="M29.2188 256.285 29.2188 251.14 27.8438 251.14 27.8438 256.285C26.9738 256.665 26.5763 257.678 26.956 258.548 27.3357 259.418 28.3488 259.815 29.2188 259.435 30.0887 259.056 30.4862 258.043 30.1065 257.173 29.9331 256.775 29.616 256.458 29.2188 256.285Z" stroke="#FFFFFF" stroke-width="0.6875" fill="#FFFFFF"/><path d="M34.1244 244.863C34.0504 244.861 33.9765 244.864 33.903 244.874L33.903 244.863C33.9011 243.794 33.3768 242.795 32.4992 242.186 31.6152 241.571 30.4903 241.418 29.4742 241.773 28.6208 240.157 26.781 239.324 25.0033 239.749 23.229 240.159 21.9658 241.73 21.9464 243.551L21.9464 243.585C20.7333 243.393 19.5123 243.881 18.7667 244.857 18.0288 245.827 17.896 247.128 18.4229 248.226 18.9574 249.33 20.0564 250.05 21.2819 250.098L22.3438 250.109 34.1244 250.109C35.5732 250.126 36.7612 248.965 36.7778 247.516 36.7943 246.067 35.6333 244.879 34.1845 244.863 34.1645 244.862 34.1444 244.862 34.1244 244.863Z" stroke="#FFFFFF" stroke-width="0.6875" fill="#FFFFFF"/></g></svg>